Coordinates
version=1
nRows=40
nColumns=30
inDegrees=yes

Units are S.I. units (second, meters, Newtons, ...)
Angles are in degrees.

endheader
time	floatyaw	floatroll	floatpitch	floatx	floaty	floatz	pro_sup_l	deviation_l	flexion_l	cmc_flexion_l	cmc_abduction_l	mp_flexion_l	ip_flexion_l	2mcp_flexion_l	2mcp_abduction_l	2pm_flexion_l	2md_flexion_l	3mcp_flexion_l	3mcp_abduction_l	3pm_flexion_l	3md_flexion_l	4mcp_flexion_l	4mcp_abduction_l	4pm_flexion_l	4md_flexion_l	5mcp_flexion_l	5mcp_abduction_l	5pm_flexion_l	5md_flexion_l
0.005000	-3.995636	-4.876138	96.430707	0.057276	-0.147982	0.047734	8.303986	-0.221130	-7.686864	-0.099334	26.530668	-29.049055	-44.397944	67.974603	6.907089	77.465956	44.197634	69.911655	6.133865	81.819917	47.581463	71.875281	-6.224205	86.341451	51.429671	57.992244	-5.311623	90.683255	47.704786
0.015000	-3.995636	-4.876138	96.430707	0.057245	-0.146041	0.047695	7.147656	0.520928	-7.539562	-0.942586	27.062380	-29.174002	-44.394566	68.429483	6.641019	77.383294	43.946828	70.650455	6.170821	82.182594	47.168475	73.051912	-6.168470	86.693839	50.657692	58.863825	-5.215908	90.937017	47.534852
0.025000	-3.995636	-4.876138	96.430707	0.057291	-0.143038	0.047694	6.410754	1.138822	-7.446168	-1.293377	27.364947	-29.286541	-44.538575	68.792227	6.532444	77.271648	43.760302	71.162360	6.227488	82.372078	46.753520	73.797446	-6.124191	86.936013	49.942283	59.589341	-5.275125	91.014986	47.273778
0.035000	-3.995636	-4.876138	96.430707	0.057417	-0.139097	0.047645	6.337701	1.582190	-7.355379	-1.211330	27.554634	-29.422956	-44.888072	69.109843	6.542722	77.160997	43.644798	71.540750	6.295735	82.505385	46.438587	74.275835	-6.091971	87.175346	49.366000	60.272842	-5.440091	91.039039	46.977545
0.045000	-3.995636	-4.876138	96.430707	0.057620	-0.134658	0.047447	7.003297	1.836870	-7.198317	-0.869759	27.750908	-29.587699	-45.393652	69.360681	6.606936	77.073343	43.588250	71.825067	6.361228	82.662966	46.254138	74.610580	-6.066502	87.474141	48.928339	60.956513	-5.638164	91.085525	46.689271
0.055000	-3.995636	-4.876138	96.430707	0.057885	-0.130388	0.047051	8.232888	1.942081	-6.934601	-0.493586	28.023224	-29.753888	-45.919085	69.510610	6.663503	77.020048	43.565623	72.027730	6.410422	82.870938	46.173211	74.875488	-6.041164	87.843815	48.583027	61.635885	-5.800330	91.188819	46.434143
0.065000	-3.995636	-4.876138	96.430707	0.058177	-0.126972	0.046479	9.647498	1.988165	-6.577505	-0.272062	28.368379	-29.878782	-46.304321	69.550294	6.675018	76.999418	43.549357	72.154705	6.436315	83.102394	46.142660	75.098288	-6.011679	88.249299	48.278666	62.279917	-5.884549	91.342755	46.218151
0.075000	-3.995636	-4.876138	96.430707	0.058429	-0.124878	0.045811	10.817583	2.087287	-6.184585	-0.291033	28.723162	-29.925168	-46.435822	69.498436	6.634378	76.996081	43.520762	72.210195	6.440400	83.298388	46.115896	75.270504	-5.977389	88.625365	47.985601	62.842664	-5.886218	91.508337	46.034806
0.085000	-3.995636	-4.876138	96.430707	0.058561	-0.124207	0.045140	11.441539	2.327923	-5.823278	-0.517760	29.000701	-29.876412	-46.285459	69.380311	6.557476	76.984760	43.476891	72.190383	6.430439	83.399177	46.072992	75.359550	-5.940358	88.902260	47.703691	63.268117	-5.832139	91.634186	45.877841
0.095000	-3.995636	-4.876138	96.430707	0.058505	-0.124698	0.044537	11.451611	2.737494	-5.535860	-0.839529	29.130911	-29.738582	-45.902192	69.205156	6.469531	76.940203	43.429773	72.079024	6.415884	83.371528	46.021859	75.323255	-5.903741	89.031975	47.454282	63.498323	-5.762647	91.682934	45.751570
0.105000	-3.995636	-4.876138	96.430707	0.058239	-0.125858	0.044034	10.999943	3.273688	-5.323885	-1.128626	29.088520	-29.532487	-45.372228	68.960692	6.392823	76.849383	43.399002	71.853475	6.403663	83.220614	45.984554	75.126877	-5.870700	89.004052	47.264084	63.489329	-5.712168	91.648160	45.671255
0.115000	-3.995636	-4.876138	96.430707	0.057799	-0.127172	0.043635	10.350552	3.847295	-5.155649	-1.297849	28.900501	-29.284031	-44.778766	68.625352	6.340016	76.717625	43.401540	71.498555	6.396312	82.983474	45.979628	74.758145	-5.844010	88.844827	47.149814	63.227853	-5.697540	91.552461	45.653777
0.125000	-3.995636	-4.876138	96.430707	0.057266	-0.128257	0.043323	9.747638	4.362084	-4.986393	-1.323501	28.632528	-29.019185	-44.183199	68.185069	6.313255	76.563227	43.443259	71.018126	6.392763	82.710013	46.011262	74.233003	-5.825792	88.602944	47.110613	62.737072	-5.717354	91.430957	45.706447
0.135000	-3.995636	-4.876138	96.430707	0.056736	-0.128945	0.043069	9.326250	4.751184	-4.778099	-1.235072	28.360962	-28.763302	-43.627746	67.641721	6.306967	76.403174	43.515455	70.435937	6.390591	82.442041	46.069931	73.588323	-5.817015	88.330185	47.130697	62.066368	-5.759147	91.312484	45.821921
0.145000	-3.995636	-4.876138	96.430707	0.056282	-0.129262	0.042844	9.093630	4.995242	-4.510969	-1.087139	28.143118	-28.540315	-43.144636	67.010263	6.312002	76.239048	43.597419	69.785453	6.388092	82.199686	46.141846	72.865795	-5.816942	88.066695	47.189180	61.270848	-5.808491	91.208788	45.981332
0.155000	-3.995636	-4.876138	96.430707	0.055933	-0.129349	0.042618	8.968916	5.119004	-4.185366	-0.931351	27.999782	-28.368688	-42.758444	66.310200	6.319409	76.052790	43.664208	69.095925	6.385097	81.980056	46.219705	72.096851	-5.823062	87.835533	47.270614	60.392962	-5.855149	91.115236	46.162574
0.165000	-3.995636	-4.876138	96.430707	0.055673	-0.129377	0.042369	8.846612	5.172909	-3.816888	-0.798779	27.916105	-28.255379	-42.479857	65.558162	6.322954	75.815999	43.697097	68.383623	6.382459	81.767337	46.307606	71.297014	-5.831845	87.645918	47.370456	59.456054	-5.894584	91.020326	46.349490
0.175000	-3.995636	-4.876138	96.430707	0.055459	-0.129475	0.042088	8.649932	5.210616	-3.428160	-0.694867	27.855711	-28.192168	-42.298658	64.764491	6.320047	75.507510	43.692617	67.652513	6.380836	81.548281	46.417545	70.470886	-5.840041	87.500295	47.493506	58.470954	-5.925844	90.917951	46.538548
0.185000	-3.995636	-4.876138	96.430707	0.055245	-0.129702	0.041777	8.355648	5.271823	-3.040734	-0.605109	27.778456	-28.158090	-42.184649	63.933566	6.311043	75.128382	43.665498	66.902052	6.379732	81.324165	46.560526	69.622153	-5.845729	87.399628	47.647378	57.448602	-5.948313	90.816109	46.740147
0.195000	-3.995636	-4.876138	96.430707	0.055000	-0.130054	0.041446	7.990166	5.374707	-2.669899	-0.507632	27.655990	-28.128006	-42.098720	63.067064	6.297296	74.704815	43.642864	66.136055	6.377479	81.112428	46.738407	68.761357	-5.848462	87.344552	47.835201	56.409545	-5.959703	90.737932	46.972874
0.205000	-3.995636	-4.876138	96.430707	0.054715	-0.130485	0.041110	7.607825	5.517269	-2.323748	-0.387160	27.482312	-28.083305	-42.008421	62.169532	6.278878	74.276985	43.651521	65.367627	6.372311	80.937705	46.941672	67.907700	-5.848535	87.334030	48.051716	55.385025	-5.956549	90.714129	47.252333
0.215000	-3.995636	-4.876138	96.430707	0.054400	-0.130932	0.040781	7.264634	5.684014	-2.005802	-0.244209	27.275553	-28.019006	-41.898829	61.254563	6.253231	73.880826	43.704861	64.618968	6.363925	80.818813	47.154242	67.086115	-5.846116	87.364584	48.284938	54.410462	-5.936653	90.769255	47.580324
0.225000	-3.995636	-4.876138	96.430707	0.054073	-0.131346	0.040473	6.997487	5.854112	-1.718841	-0.095492	27.068241	-27.943476	-41.772951	60.348293	6.215759	73.534377	43.796665	63.917844	6.354397	80.760107	47.361858	66.323102	-5.840942	87.431320	48.522197	53.516421	-5.901676	90.907663	47.940947
0.235000	-3.995636	-4.876138	96.430707	0.053755	-0.131695	0.040198	6.814640	6.008442	-1.467419	0.034341	26.889609	-27.871569	-41.643381	59.487130	6.162340	73.236327	43.904933	63.292899	6.347538	80.751699	47.558493	65.643509	-5.832717	87.529663	48.756313	52.722683	-5.857963	91.107000	48.305936
0.245000	-3.995636	-4.876138	96.430707	0.053463	-0.131973	0.039966	6.698816	6.134341	-1.257679	0.125073	26.749456	-27.816006	-41.522414	58.709367	6.092546	72.975551	44.003032	62.768812	6.346833	80.777148	47.746904	65.067994	-5.821736	87.656368	48.987215	52.038162	-5.814814	91.324947	48.645205
0.255000	-3.995636	-4.876138	96.430707	0.053206	-0.132191	0.039786	6.619549	6.227820	-1.094767	0.170477	26.632448	-27.782105	-41.416735	58.043844	6.011602	72.744052	44.072183	62.361449	6.353325	80.823536	47.933717	64.610038	-5.809224	87.809749	49.217712	51.465170	-5.780940	91.517765	48.935953
0.265000	-3.995636	-4.876138	96.430707	0.052987	-0.132371	0.039660	6.547887	6.293241	-0.979484	0.179677	26.505408	-27.767703	-41.327503	57.501133	5.929407	72.545086	44.109422	62.073600	6.364997	80.888348	48.122980	64.272476	-5.797116	87.989695	49.447025	51.003583	-5.760926	91.660771	49.166708
0.275000	-3.995636	-4.876138	96.430707	0.052805	-0.132532	0.039585	6.466527	6.340579	-0.906394	0.170217	26.333134	-27.766574	-41.252843	57.071926	5.856469	72.391731	44.127262	61.893038	6.378116	80.979425	48.312712	64.045299	-5.787367	88.197267	49.667757	50.651229	-5.753658	91.758299	49.337265
0.285000	-3.995636	-4.876138	96.430707	0.052654	-0.132690	0.039550	6.372133	6.381008	-0.864946	0.158219	26.094302	-27.772380	-41.190058	56.733342	5.798857	72.297158	44.145305	61.794903	6.389502	81.108089	48.496388	63.907089	-5.781095	88.433042	49.868872	50.400716	-5.753558	91.837292	49.457086
0.295000	-3.995636	-4.876138	96.430707	0.052529	-0.132847	0.039545	6.271238	6.422442	-0.843256	0.151963	25.789659	-27.781055	-41.136818	56.458932	5.755403	72.263367	44.178564	61.748556	6.398032	81.279650	48.667898	63.830621	-5.778035	88.694355	50.042198	50.236152	-5.753847	91.929537	49.542846
0.305000	-3.995636	-4.876138	96.430707	0.052421	-0.132999	0.039557	6.173660	6.466940	-0.832172	0.151298	25.439697	-27.791201	-41.091454	56.226646	5.718981	72.276032	44.229221	61.726031	6.404523	81.487052	48.826401	63.790149	-5.776605	88.973081	50.187563	50.133307	-5.749855	92.053984	49.614318
0.315000	-3.995636	-4.876138	96.430707	0.052325	-0.133136	0.039580	6.087140	6.511025	-0.827074	0.150871	25.075011	-27.803215	-41.052595	56.021906	5.680817	72.308585	44.286231	61.708177	6.410448	81.711358	48.977662	63.766714	-5.774576	89.255924	50.313216	50.064189	-5.740548	92.208741	49.688561
0.325000	-3.995636	-4.876138	96.430707	0.052236	-0.133252	0.039605	6.014952	6.548435	-0.826612	0.143869	24.725458	-27.818308	-41.018736	55.836774	5.635137	72.332848	44.332298	61.686313	6.416589	81.928701	49.130741	63.749560	-5.770020	89.527830	50.431585	50.004180	-5.727763	92.375041	49.774457
0.335000	-3.995636	-4.876138	96.430707	0.052152	-0.133343	0.039628	5.956316	6.573695	-0.829860	0.124564	24.412662	-27.838031	-40.988509	55.667537	5.581817	72.330311	44.353847	61.659876	6.422481	82.119886	49.292046	63.734386	-5.762106	89.777072	50.553223	49.938041	-5.714184	92.528618	49.870614
0.345000	-3.995636	-4.876138	96.430707	0.052074	-0.133408	0.039645	5.908177	6.584745	-0.834232	0.089627	24.146827	-27.864117	-40.961585	55.512445	5.526088	72.298405	44.348349	61.632114	6.426782	82.277480	49.460835	63.720420	-5.751397	89.999259	50.682510	49.861620	-5.701588	92.651343	49.968057
0.355000	-3.995636	-4.876138	96.430707	0.052002	-0.133454	0.039653	5.866763	6.583521	-0.835563	0.038671	23.926673	-27.897953	-40.939180	55.370502	5.475711	72.249052	44.325282	61.606146	6.428217	82.406868	49.629498	63.708078	-5.739573	90.197916	50.817192	49.778848	-5.690341	92.737692	50.056213
0.365000	-3.995636	-4.876138	96.430707	0.051940	-0.133489	0.039651	5.828342	6.574588	-0.829997	-0.025721	23.741231	-27.939520	-40.923287	55.241323	5.437184	72.201188	44.300952	61.583139	6.426460	82.521471	49.788614	63.698056	-5.728739	90.381501	50.951425	49.696674	-5.680028	92.794382	50.128746
0.375000	-3.995636	-4.876138	96.430707	0.051885	-0.133518	0.039640	5.789803	6.562961	-0.816072	-0.098327	23.573083	-27.986541	-40.914988	55.125152	5.412999	72.172013	44.291016	61.562837	6.422388	82.635523	49.933420	63.691595	-5.720633	90.558918	51.080388	49.621247	-5.670333	92.834818	50.186491
0.385000	-3.995636	-4.876138	96.430707	0.051839	-0.133545	0.039627	5.749731	6.552479	-0.795429	-0.171921	23.402947	-28.034817	-40.913021	55.022127	5.401230	72.171277	44.305100	61.544976	6.417576	82.758275	50.067269	63.690811	-5.716037	90.735955	51.204193	49.556677	-5.661328	92.871779	50.237065
0.395000	-3.995636	-4.876138	96.430707	0.051798	-0.133572	0.039614	5.709519	6.545413	-0.771702	-0.238456	23.214984	-28.079819	-40.913519	54.930995	5.397149	72.199976	44.345510	61.529717	6.413403	82.891658	50.199695	63.697954	-5.714529	90.913654	51.329169	49.505185	-5.653116	92.912022	50.292290
